Coordinates
version=1
nRows=4
nColumns=107
inDegrees=yes

Units are S.I. units (second, meters, Newtons, ...)
If the header above contains a line with 'inDegrees', this indicates whether rotational values are in degrees (yes) or radians (no).

endheader
time	sternoclavicular_r2	sternoclavicular_r3	unrotscap_r3	unrotscap_r2	acromioclavicular_r2	acromioclavicular_r3	acromioclavicular_r1	unrothum_r1	unrothum_r3	unrothum_r2	elv_angle	shoulder_elv	shoulder1_r2	shoulder_rot	elbow_flexion	pro_sup	deviation	flexion	proximal_distal_r1	proximal_distal_r3	cmc_flexion	cmc_abduction	mp_flexion	ip_flexion	mcp2_flexion	mcp2_abduction	pm2_flexion	md2_flexion	mcp3_flexion	mcp3_abduction	pm3_flexion	md3_flexion	mcp4_flexion	mcp4_abduction	pm4_flexion	md4_flexion	mcp5_flexion	mcp5_abduction	pm5_flexion	md5_flexion	bicpt_tx	bicpt_ty	bicpt_tz	bicpt2_tx	bicpt2_ty	bicpt2_tz	ptpt_tx	ptpt_ty	ptpt_tz	FCUpt_tx	FCUpt_ty	FCUpt_tz	EDCpt_tx	EDCpt_ty	EDCpt_tz	APLpt_tx	APLpt_ty	APLpt_tz	FPLpt_tx	FPLpt_ty	FPLpt_tz	FPLpt2_tx	FPLpt2_ty	FPLpt2_tz	PEC1pt2_tx	PEC1pt2_ty	PEC1pt2_tz	PEC1pt3_tx	PEC1pt3_ty	PEC1pt3_tz	PEC2pt2_tx	PEC2pt2_ty	PEC2pt2_tz	PEC2pt3_tx	PEC2pt3_ty	PEC2pt3_tz	PEC3pt2_tx	PEC3pt2_ty	PEC3pt2_tz	PEC3pt3_tx	PEC3pt3_ty	PEC3pt3_tz	DELT2pt2a_tx	DELT2pt2a_ty	DELT2pt2a_tz	DELT2pt2_tx	DELT2pt2_ty	DELT2pt2_tz	LAT1pt2_tx	LAT1pt2_ty	LAT1pt2_tz	LAT1pt3_tx	LAT1pt3_ty	LAT1pt3_tz	LAT2pt2_tx	LAT2pt2_ty	LAT2pt2_tz	LAT2pt3_tx	LAT2pt3_ty	LAT2pt3_tz	LAT3pt2_tx	LAT3pt2_ty	LAT3pt2_tz	LAT3pt3_tx	LAT3pt3_ty	LAT3pt3_tz
      1.70000000	     -0.31939689	      0.13528145	     -0.13528145	      0.31939689	     -0.06467137	      0.52265128	      0.23492815	     -0.23492815	     -0.52265128	      0.06467137	     98.68595291	     75.62005172	     -1.72239480	    -23.68190954	     30.87681270	      1.33121524	     -0.15514470	     -0.82841473	     -0.23025381	     -0.41420737	     41.16988435	    -23.16697295	      9.97405812	      3.41432845	    -25.73448248	     12.62653317	     20.95066395	     -6.89856283	    -15.98538352	      3.34839756	     12.84123446	     15.36664910	     -2.28007453	      5.84487873	      0.99068535	     21.68648555	     16.93342126	    -12.76006573	     -1.55152580	      5.06608895	      0.00092131	     -0.03113895	     -0.00487003	      0.01479176	     -0.01858784	     -0.01054972	      0.00745164	     -0.06496360	     -0.00015724	      0.00411786	     -0.18408718	      0.00045112	     -0.00015975	      0.00003799	      0.00001882	      0.00027287	      0.00010915	      0.00054574	      0.00034927	      0.00104782	      0.00058940	     -0.00000883	     -0.00008761	     -0.00010513	      0.00247866	      0.00869631	      0.00604961	     -0.00810816	      0.01957721	     -0.01856894	      0.00247866	      0.00869631	      0.00604961	      0.00054615	      0.01814883	     -0.00953654	      0.00392718	      0.00483591	      0.01591667	      0.00000000	      0.00764680	      0.00000000	     -0.00709989	     -0.03281073	     -0.00630438	      0.01581026	     -0.00054762	     -0.00468037	     -0.00088223	      0.01478793	     -0.00604961	      0.00243665	      0.02134168	     -0.01764469	     -0.00592358	      0.01281341	     -0.00541944	     -0.01235129	      0.02705520	     -0.03029006	     -0.02319017	      0.01432581	     -0.00726793	     -0.01537609	      0.03125631	     -0.03785207
      1.73333333	     -0.31930865	      0.13524407	     -0.13524407	      0.31930865	     -0.06465351	      0.52250690	      0.23486325	     -0.23486325	     -0.52250690	      0.06465351	     98.69667950	     75.59916111	     -1.72258202	    -23.67608168	     30.88361368	      1.32749249	     -0.15516355	     -0.82833463	     -0.23028492	     -0.41416732	     41.17145842	    -23.16661707	      9.97515028	      3.41495623	    -25.73256284	     12.62615268	     20.95135555	     -6.89784275	    -15.98153507	      3.34801978	     12.84250376	     15.36698585	     -2.27655249	      5.84419450	      0.99308365	     21.68671060	     16.94194059	    -12.75980666	     -1.54829535	      5.06641994	      0.00092153	     -0.03113973	     -0.00487016	      0.01479142	     -0.01858969	     -0.01054992	      0.00745191	     -0.06496342	     -0.00015694	      0.00411753	     -0.18408721	      0.00045125	     -0.00015930	      0.00003788	      0.00001877	      0.00027289	      0.00010916	      0.00054579	      0.00034930	      0.00104791	      0.00058945	     -0.00000882	     -0.00008757	     -0.00010508	      0.00247797	      0.00869391	      0.00604794	     -0.00810592	      0.01957180	     -0.01856381	      0.00247797	      0.00869391	      0.00604794	      0.00054599	      0.01814381	     -0.00953390	      0.00392639	      0.00483457	      0.01591471	      0.00000000	      0.00764255	      0.00000000	     -0.00709793	     -0.03280166	     -0.00630085	      0.01580717	     -0.00054744	     -0.00467803	     -0.00088199	      0.01478385	     -0.00604794	      0.00243598	      0.02133578	     -0.01763982	     -0.00592194	      0.01280987	     -0.00541794	     -0.01234787	      0.02704772	     -0.03028169	     -0.02318376	      0.01432185	     -0.00726593	     -0.01537184	      0.03124768	     -0.03784161
      1.76666667	     -0.31805479	      0.13471300	     -0.13471300	      0.31805479	     -0.06439963	      0.52045513	      0.23394100	     -0.23394100	     -0.52045513	      0.06439963	     98.99146957	     75.30229975	     -1.72772708	    -25.23393792	     30.95115963	      3.12081733	     -0.15329761	     -0.82368700	     -0.22728142	     -0.41184350	     41.02255293	    -23.07757766	     11.31317117	      1.82901901	    -25.12258191	     12.65088266	     22.93765853	     -6.30622771	    -14.94850477	      3.42152747	     13.97571321	     16.49567111	     -1.55690081	      5.51013555	      2.78819469	     23.28930437	     19.14047145	    -12.76717015	     -1.02482020	      4.98778366	      0.00092377	     -0.03114748	     -0.00487141	      0.01494978	     -0.01860803	     -0.01045348	      0.00731941	     -0.06504911	     -0.00030140	      0.00427717	     -0.18406915	      0.00038750	     -0.00037450	      0.00008992	      0.00004262	      0.00027457	      0.00010983	      0.00054914	      0.00035145	      0.00105435	      0.00059307	     -0.00000906	     -0.00009066	     -0.00010879	      0.00246824	      0.00865977	      0.00602419	     -0.00807409	      0.01949495	     -0.01849091	      0.00246824	      0.00865977	      0.00602419	      0.00054385	      0.01807257	     -0.00949646	      0.00391507	      0.00481559	      0.01588673	      0.00000000	      0.00758224	      0.00000000	     -0.00707006	     -0.03267286	     -0.00625078	      0.01661337	     -0.00059787	     -0.00532272	     -0.00087853	      0.01472580	     -0.00602419	      0.00242641	      0.02125200	     -0.01757055	     -0.00589869	      0.01275957	     -0.00539667	     -0.01229939	      0.02694151	     -0.03016278	     -0.02309272	      0.01426561	     -0.00723739	     -0.01531148	      0.03112498	     -0.03769302
      1.80000000	     -0.31806011	      0.13471525	     -0.13471525	      0.31806011	     -0.06440070	      0.52046382	      0.23394491	     -0.23394491	     -0.52046382	      0.06440070	     98.98562569	     75.30355820	     -1.72762508	    -25.26622537	     30.95025127	      3.47678123	     -0.15266509	     -0.83080054	     -0.22626436	     -0.41540027	     41.00753177	    -23.08063890	     10.74382942	      1.60850176	    -24.59079963	     12.70305976	     23.85017040	     -5.25791647	    -14.38034610	      3.31488061	     14.54530486	     16.75561714	     -1.04504708	      5.44234633	      3.73374498	     23.31784865	     19.83437367	    -12.69994260	     -0.69000083	      5.03976540	      0.00092374	     -0.03114737	     -0.00487139	      0.01498031	     -0.01860779	     -0.01043378	      0.00729311	     -0.06506611	     -0.00033007	      0.00430898	     -0.18406545	      0.00037514	     -0.00041721	      0.00010037	      0.00004714	      0.00027199	      0.00010880	      0.00054398	      0.00034815	      0.00104445	      0.00058750	     -0.00000908	     -0.00009096	     -0.00010915	      0.00246829	      0.00865992	      0.00602429	     -0.00807422	      0.01949527	     -0.01849122	      0.00246829	      0.00865992	      0.00602429	      0.00054386	      0.01807287	     -0.00949662	      0.00391512	      0.00481567	      0.01588685	      0.00000000	      0.00758250	      0.00000000	     -0.00707017	     -0.03267340	     -0.00625099	      0.01662971	     -0.00059892	     -0.00533647	     -0.00087854	      0.01472604	     -0.00602429	      0.00242645	      0.02125236	     -0.01757085	     -0.00589878	      0.01275978	     -0.00539676	     -0.01229959	      0.02694196	     -0.03016328	     -0.02309311	      0.01426585	     -0.00723751	     -0.01531174	      0.03112550	     -0.03769365
